<?xml version="1.0" encoding="UTF-8" standalone="no"?>
<!DOCTYPE svg PUBLIC "-//W3C//DTD SVG 1.1//EN" "http://www.w3.org/Graphics/SVG/1.1/DTD/svg11.dtd">
<svg width="100%" height="100%" viewBox="0 0 75 75" version="1.1" xmlns="http://www.w3.org/2000/svg" xmlns:xlink="http://www.w3.org/1999/xlink" xml:space="preserve" xmlns:serif="http://www.serif.com/" style="fill-rule:evenodd;clip-rule:evenodd;stroke-linecap:round;stroke-linejoin:round;stroke-miterlimit:10;">
    <g transform="matrix(1,0,0,1,-984.847,-255.392)">
        <g transform="matrix(1,0,0,1,-0.204326,-0.748273)">
            <g id="SvgjsG1460" transform="matrix(0.911144,0,0,0.911144,976.851,262.386)">
                <g transform="matrix(1,0,0,1,0,-15.8563)">
                    <circle cx="18" cy="18.001" r="3.001" style="fill:rgb(0,85,85);stroke:rgb(0,164,85);stroke-width:2px;"/>
                </g>
                <g transform="matrix(1,0,0,1,0,-15.8563)">
                    <circle cx="31.5" cy="18.001" r="5.5" style="fill:rgb(0,85,85);stroke:rgb(0,164,85);stroke-width:2px;"/>
                </g>
                <g transform="matrix(1,0,0,1,0,-15.8563)">
                    <circle cx="50" cy="18.001" r="8" style="fill:rgb(0,85,85);stroke:rgb(0,164,85);stroke-width:2px;"/>
                </g>
                <g transform="matrix(1,0,0,1,0,-15.8563)">
                    <circle cx="68.499" cy="18.001" r="5.501" style="fill:rgb(0,85,85);stroke:rgb(0,164,85);stroke-width:2px;"/>
                </g>
                <g transform="matrix(1,0,0,1,0,-15.8563)">
                    <circle cx="82" cy="18.001" r="3" style="fill:rgb(0,85,85);stroke:rgb(0,164,85);stroke-width:2px;"/>
                </g>
                <g transform="matrix(1,0,0,1,0,-15.8563)">
                    <circle cx="18" cy="31.501" r="5.5" style="fill:rgb(0,85,85);stroke:rgb(0,164,85);stroke-width:2px;"/>
                </g>
                <g transform="matrix(1,0,0,1,0,-15.8563)">
                    <circle cx="33.999" cy="34" r="3" style="fill:rgb(0,85,85);stroke:rgb(0,164,85);stroke-width:2px;"/>
                </g>
                <g transform="matrix(1,0,0,1,0,-15.8563)">
                    <circle cx="50" cy="36.501" r="5.5" style="fill:rgb(0,85,85);stroke:rgb(0,164,85);stroke-width:2px;"/>
                </g>
                <g transform="matrix(1,0,0,1,0,-15.8563)">
                    <circle cx="65.999" cy="34" r="3.001" style="fill:rgb(0,85,85);stroke:rgb(0,164,85);stroke-width:2px;"/>
                </g>
                <g transform="matrix(1,0,0,1,0,-15.8563)">
                    <circle cx="82" cy="31.501" r="5.501" style="fill:rgb(0,85,85);stroke:rgb(0,164,85);stroke-width:2px;"/>
                </g>
                <g transform="matrix(1,0,0,1,0,-15.8563)">
                    <circle cx="18" cy="50.001" r="8" style="fill:rgb(0,85,85);stroke:rgb(0,164,85);stroke-width:2px;"/>
                </g>
                <g transform="matrix(1,0,0,1,0,-15.8563)">
                    <circle cx="36.499" cy="50.001" r="5.5" style="fill:rgb(0,85,85);stroke:rgb(0,164,85);stroke-width:2px;"/>
                </g>
                <g transform="matrix(1,0,0,1,0,-15.8563)">
                    <circle cx="50" cy="49.999" r="3" style="fill:rgb(0,85,85);stroke:rgb(0,164,85);stroke-width:2px;"/>
                </g>
                <g transform="matrix(1,0,0,1,0,-15.8563)">
                    <circle cx="63.5" cy="50.001" r="5.5" style="fill:rgb(0,85,85);stroke:rgb(0,164,85);stroke-width:2px;"/>
                </g>
                <g transform="matrix(1,0,0,1,0,-15.8563)">
                    <circle cx="82" cy="50.001" r="8" style="fill:rgb(0,85,85);stroke:rgb(0,164,85);stroke-width:2px;"/>
                </g>
                <g transform="matrix(1,0,0,1,0,-15.8563)">
                    <circle cx="18" cy="68.501" r="5.5" style="fill:rgb(0,85,85);stroke:rgb(0,164,85);stroke-width:2px;"/>
                </g>
                <g transform="matrix(1,0,0,1,0,-15.8563)">
                    <circle cx="33.999" cy="66" r="3" style="fill:rgb(0,85,85);stroke:rgb(0,164,85);stroke-width:2px;"/>
                </g>
                <g transform="matrix(1,0,0,1,0,-15.8563)">
                    <path d="M55.5,63.502C55.5,66.537 53.037,69 50,69C46.964,69 44.498,66.537 44.498,63.502C44.498,60.462 46.964,58 50,58C53.037,58 55.5,60.462 55.5,63.502Z" style="fill:rgb(0,85,85);stroke:rgb(0,164,85);stroke-width:2px;"/>
                </g>
                <g transform="matrix(1,0,0,1,0,-15.8563)">
                    <circle cx="65.999" cy="66" r="3.001" style="fill:rgb(0,85,85);stroke:rgb(0,164,85);stroke-width:2px;"/>
                </g>
                <g transform="matrix(1,0,0,1,0,-15.8563)">
                    <circle cx="82" cy="68.501" r="5.501" style="fill:rgb(0,85,85);stroke:rgb(0,164,85);stroke-width:2px;"/>
                </g>
                <g transform="matrix(1,0,0,1,0,-15.8563)">
                    <circle cx="18" cy="82" r="3.001" style="fill:rgb(0,85,85);stroke:rgb(0,164,85);stroke-width:2px;"/>
                </g>
                <g transform="matrix(1,0,0,1,0,-15.8563)">
                    <circle cx="31.5" cy="82" r="5.5" style="fill:rgb(0,85,85);stroke:rgb(0,164,85);stroke-width:2px;"/>
                </g>
                <g transform="matrix(1,0,0,1,0,-15.8563)">
                    <circle cx="50" cy="82" r="8" style="fill:rgb(0,85,85);stroke:rgb(0,164,85);stroke-width:2px;"/>
                </g>
                <g transform="matrix(1,0,0,1,0,-15.8563)">
                    <circle cx="68.499" cy="82" r="5.501" style="fill:rgb(0,85,85);stroke:rgb(0,164,85);stroke-width:2px;"/>
                </g>
                <g transform="matrix(1,0,0,1,0,-15.8563)">
                    <circle cx="82" cy="82" r="3" style="fill:rgb(0,85,85);stroke:rgb(0,164,85);stroke-width:2px;"/>
                </g>
            </g>
        </g>
    </g>
</svg>
